<svg width="20" height="20" viewBox="0 0 20 20" fill="none" xmlns="http://www.w3.org/2000/svg"><circle cx="10" cy="10" r="10" fill="white"/><path d="M15 10V9.91001C14.9954 9.81402 14.9752 9.71944 14.94 9.63001C14.9133 9.56142 14.8762 9.49735 14.83 9.44001C14.8035 9.39437 14.7734 9.3509 14.74 9.31001L11.88 6.31001C11.7894 6.2148 11.6809 6.13837 11.5608 6.08509C11.4406 6.0318 11.3111 6.0027 11.1797 5.99945C10.9144 5.99289 10.6573 6.09201 10.465 6.27501C10.2727 6.45801 10.161 6.7099 10.1544 6.97526C10.1479 7.24062 10.247 7.49773 10.43 7.69001L11.66 9.00001H6C5.73478 9.00001 5.48043 9.10536 5.29289 9.2929C5.10536 9.48044 5 9.73479 5 10C5 10.2652 5.10536 10.5196 5.29289 10.7071C5.48043 10.8947 5.73478 11 6 11H11.59L10.29 12.29C10.1963 12.383 10.1219 12.4936 10.0711 12.6154C10.0203 12.7373 9.9942 12.868 9.9942 13C9.9942 13.132 10.0203 13.2627 10.0711 13.3846C10.1219 13.5064 10.1963 13.617 10.29 13.71C10.383 13.8037 10.4936 13.8781 10.6154 13.9289C10.7373 13.9797 10.868 14.0058 11 14.0058C11.132 14.0058 11.2627 13.9797 11.3846 13.9289C11.5064 13.8781 11.617 13.8037 11.71 13.71L14.71 10.71C14.7999 10.6179 14.8713 10.5092 14.92 10.39C14.9725 10.2667 14.9997 10.1341 15 10Z" fill="#225AAC"/><path d="M10 0C8.02219 0 6.08879 0.58649 4.4443 1.6853C2.79981 2.78412 1.51809 4.3459 0.761209 6.17317C0.00433284 8.00043 -0.193701 10.0111 0.192152 11.9509C0.578004 13.8907 1.53041 15.6725 2.92894 17.0711C4.32746 18.4696 6.10929 19.422 8.0491 19.8079C9.98891 20.1937 11.9996 19.9957 13.8268 19.2388C15.6541 18.4819 17.2159 17.2002 18.3147 15.5557C19.4135 13.9112 20 11.9778 20 10C20 8.68678 19.7413 7.38642 19.2388 6.17317C18.7363 4.95991 17.9997 3.85752 17.0711 2.92893C16.1425 2.00035 15.0401 1.26375 13.8268 0.761205C12.6136 0.258658 11.3132 0 10 0ZM10 18C8.41775 18 6.87104 17.5308 5.55544 16.6518C4.23985 15.7727 3.21447 14.5233 2.60897 13.0615C2.00347 11.5997 1.84504 9.99113 2.15372 8.43928C2.4624 6.88743 3.22433 5.46197 4.34315 4.34315C5.46197 3.22433 6.88743 2.4624 8.43928 2.15372C9.99113 1.84504 11.5997 2.00346 13.0615 2.60896C14.5233 3.21447 15.7727 4.23984 16.6518 5.55544C17.5308 6.87103 18 8.41775 18 10C18 12.1217 17.1572 14.1566 15.6569 15.6569C14.1566 17.1571 12.1217 18 10 18Z" fill="#225AAC"/></svg>