<svg width="25" height="25" viewBox="0 0 25 25" fill="none" xmlns="http://www.w3.org/2000/svg">
<g clip-path="url(#clip0_737_16255)">
<path d="M22.6791 25.0006H2.41127C1.16127 25.0006 0.0898438 24.0184 0.0898438 22.6791V2.41127C0.0898438 1.16127 1.07199 0.0898438 2.41127 0.0898438H22.6791C23.9291 0.0898438 25.0006 1.07199 25.0006 2.41127V22.7684C25.0006 24.0184 24.0184 25.0006 22.6791 25.0006Z" fill="#0c5a3b"/>
<path d="M21.4275 21.4275V14.9096C21.4275 11.6953 20.7132 9.19531 16.9632 9.19531C15.1775 9.19531 13.9275 10.1775 13.481 11.1596H13.3917V9.55246H9.82031V21.4275H13.481V15.5346C13.481 14.0167 13.7489 12.4989 15.7132 12.4989C17.5882 12.4989 17.6775 14.2846 17.6775 15.6239V21.4275H21.4275Z" fill="white"/>
<path d="M3.83594 9.46484H7.49665V21.4291H3.83594V9.46484Z" fill="white"/>
<path d="M5.71317 3.57031C4.55246 3.57031 3.57031 4.55246 3.57031 5.71317C3.57031 6.87388 4.55246 7.85603 5.71317 7.85603C6.87388 7.85603 7.85603 6.87388 7.85603 5.71317C7.85603 4.55246 6.87388 3.57031 5.71317 3.57031Z" fill="white"/>
</g>
<defs>
<clipPath id="clip0_737_16255">
<rect width="25" height="25" fill="white"/>
</clipPath>
</defs>
</svg>